<svg width="24" height="24" viewBox="0 0 24 24" fill="none" xmlns="http://www.w3.org/2000/svg">
<rect width="24" height="24" fill="white"/>
<path d="M13.9375 6.375V0H4.17188C3.52246 0 3 0.501562 3 1.125V22.875C3 23.4984 3.52246 24 4.17188 24H20.5781C21.2275 24 21.75 23.4984 21.75 22.875V7.5H15.1094C14.4648 7.5 13.9375 6.99375 13.9375 6.375ZM17.6704 16.2825L12.9624 20.7684C12.6377 21.0783 12.1133 21.0783 11.7886 20.7684L7.08057 16.2825C6.58496 15.8105 6.93262 15 7.62988 15H10.8125V11.25C10.8125 10.8356 11.1621 10.5 11.5938 10.5H13.1562C13.5879 10.5 13.9375 10.8356 13.9375 11.25V15H17.1201C17.8174 15 18.165 15.8105 17.6704 16.2825ZM21.4082 4.92188L16.6279 0.328125C16.4082 0.117188 16.1104 0 15.7979 0H15.5V6H21.75V5.71406C21.75 5.41875 21.6279 5.13281 21.4082 4.92188Z" fill="#57DDA5"/>
</svg>
