<svg width="24" height="24" viewBox="0 0 24 24" fill="none" xmlns="http://www.w3.org/2000/svg">
<path d="M23.6678 12.9539L15.6674 20.9543C14.9531 21.6686 13.715 21.1686 13.715 20.1447V15.5731H7.23845C6.60509 15.5731 6.09554 15.0635 6.09554 14.4302V9.8585C6.09554 9.22513 6.60509 8.71558 7.23845 8.71558H13.715V4.14393C13.715 3.12483 14.9484 2.62004 15.6674 3.33436L23.6678 11.3348C24.1107 11.7824 24.1107 12.5062 23.6678 12.9539ZM9.14331 20.7162V18.8113C9.14331 18.497 8.88616 18.2399 8.57185 18.2399H4.57166C3.72876 18.2399 3.04777 17.5589 3.04777 16.716V7.57267C3.04777 6.72977 3.72876 6.04878 4.57166 6.04878H8.57185C8.88616 6.04878 9.14331 5.79163 9.14331 5.47733V3.57247C9.14331 3.25817 8.88616 3.00101 8.57185 3.00101H4.57166C2.04772 3.00101 0 5.04873 0 7.57267V16.716C0 19.2399 2.04772 21.2876 4.57166 21.2876H8.57185C8.88616 21.2876 9.14331 21.0305 9.14331 20.7162Z" fill="#F76C6C"/>
</svg>
