<svg width="90" height="90" viewBox="0 0 90 90" fill="none" xmlns="http://www.w3.org/2000/svg">
<circle cx="45" cy="45" r="45" fill="white"/>
<path d="M66.1858 26.0045C61.619 26.2637 52.5422 27.207 46.9388 30.6371C46.5521 30.8738 46.3329 31.2946 46.3329 31.7346V62.0577C46.3329 63.0202 47.3855 63.6285 48.273 63.1818C54.0381 60.2801 62.3757 59.4884 66.4983 59.2718C67.9058 59.1976 69 58.0692 69 56.7167V28.5629C69.0008 27.087 67.7208 25.9179 66.1858 26.0045ZM43.0612 30.6371C37.4586 27.207 28.3818 26.2645 23.815 26.0045C22.28 25.9179 21 27.087 21 28.5629V56.7176C21 58.0709 22.0942 59.1993 23.5017 59.2726C27.6259 59.4893 35.9678 60.2818 41.7329 63.1852C42.6179 63.631 43.6671 63.0235 43.6671 62.0635V31.7196C43.6671 31.2788 43.4487 30.8746 43.0612 30.6371Z" fill="#74D165"/>
</svg>
