<svg width="24" height="24" viewBox="0 0 24 24" fill="none" xmlns="http://www.w3.org/2000/svg">
<rect width="24" height="24" fill="white"/>
<path d="M23.6817 14.8839L21.6204 13.6935C21.8284 12.571 21.8284 11.4194 21.6204 10.2968L23.6817 9.10646C23.9188 8.97098 24.0252 8.69034 23.9478 8.42905C23.4107 6.70647 22.4962 5.14841 21.301 3.85164C21.1172 3.65326 20.8172 3.60487 20.5849 3.74035L18.5236 4.93067C17.6575 4.18551 16.6607 3.60971 15.5817 3.23229V0.856494C15.5817 0.585527 15.393 0.348431 15.1269 0.290367C13.3511 -0.106406 11.5317 -0.0870511 9.84301 0.290367C9.57688 0.348431 9.38817 0.585527 9.38817 0.856494V3.23713C8.31398 3.61939 7.31721 4.19519 6.44624 4.93551L4.3898 3.74519C4.1527 3.60971 3.85754 3.65326 3.67367 3.85648C2.47852 5.14841 1.564 6.70647 1.02691 8.43388C0.944651 8.69517 1.05594 8.97582 1.29304 9.1113L3.35432 10.3016C3.14626 11.4242 3.14626 12.5758 3.35432 13.6984L1.29304 14.8887C1.05594 15.0242 0.94949 15.3048 1.02691 15.5661C1.564 17.2887 2.47852 18.8467 3.67367 20.1435C3.85754 20.3419 4.15754 20.3903 4.3898 20.2548L6.45108 19.0645C7.31721 19.8096 8.31398 20.3855 9.39301 20.7629V23.1435C9.39301 23.4145 9.58172 23.6516 9.84784 23.7096C11.6236 24.1064 13.443 24.0871 15.1317 23.7096C15.3978 23.6516 15.5865 23.4145 15.5865 23.1435V20.7629C16.6607 20.3806 17.6575 19.8048 18.5285 19.0645L20.5897 20.2548C20.8268 20.3903 21.122 20.3467 21.3059 20.1435C22.501 18.8516 23.4155 17.2935 23.9526 15.5661C24.0252 15.3 23.9188 15.0193 23.6817 14.8839V14.8839ZM12.4849 15.8661C10.3511 15.8661 8.61398 14.129 8.61398 11.9952C8.61398 9.8613 10.3511 8.12421 12.4849 8.12421C14.6188 8.12421 16.3559 9.8613 16.3559 11.9952C16.3559 14.129 14.6188 15.8661 12.4849 15.8661Z" fill="#6F6CF7"/>
</svg>
