<svg width="40" height="40" viewBox="0 0 40 40" fill="none" xmlns="http://www.w3.org/2000/svg">
<path d="M26.5798 13.6836C27.0368 13.6836 27.4796 13.705 27.9223 13.7621C26.7369 8.16336 20.7311 4 13.904 4C6.24861 4 0 9.19884 0 15.8116C0 19.6251 2.09239 22.7744 5.56304 25.2096L4.18478 29.3943L9.04084 26.9592C10.7833 27.3019 12.1687 27.6519 13.9112 27.6519C14.3539 27.6519 14.7753 27.6304 15.218 27.5947C14.9324 26.6735 14.7753 25.6952 14.7753 24.6811C14.7681 18.6182 19.9813 13.6836 26.5798 13.6836V13.6836ZM19.1172 9.90582C20.1526 9.90582 20.8453 10.5985 20.8453 11.6483C20.8453 12.6838 20.1526 13.3765 19.1172 13.3765C18.0603 13.3765 17.0248 12.6838 17.0248 11.6483C17.0319 10.5985 18.0674 9.90582 19.1172 9.90582ZM9.37648 13.3765C8.341 13.3765 7.28409 12.6838 7.28409 11.6483C7.28409 10.5914 8.341 9.90582 9.37648 9.90582C10.4334 9.90582 11.1189 10.5985 11.1189 11.6483C11.1189 12.6909 10.4334 13.3765 9.37648 13.3765ZM39.2769 24.524C39.2769 18.9609 33.7139 14.4334 27.4653 14.4334C20.8453 14.4334 15.6536 18.9609 15.6536 24.524C15.6536 30.087 20.8525 34.6146 27.4653 34.6146C28.8436 34.6146 30.2432 34.2504 31.6501 33.9076L35.4635 36L34.4066 32.5293C37.206 30.4298 39.2769 27.6519 39.2769 24.524ZM23.6304 22.7744C22.9377 22.7744 22.2522 22.0817 22.2522 21.3747C22.2522 20.682 22.9449 19.9964 23.6304 19.9964C24.6873 19.9964 25.3729 20.6891 25.3729 21.3747C25.3729 22.0888 24.6802 22.7744 23.6304 22.7744ZM31.2787 22.7744C30.586 22.7744 29.9005 22.0817 29.9005 21.3747C29.9005 20.682 30.5932 19.9964 31.2787 19.9964C32.3142 19.9964 33.0212 20.6891 33.0212 21.3747C33.0283 22.0888 32.3142 22.7744 31.2787 22.7744Z" fill="#74D165"/>
</svg>
